<svg width="193" height="351" viewBox="0 0 193 351" fill="none" xmlns="http://www.w3.org/2000/svg">
<path d="M190.313 351H38.5137C28.3028 350.986 18.5136 346.351 11.2935 338.111C4.07334 329.871 0.0118524 318.699 0 307.046L0 58.9197C0.0118524 47.2664 4.07334 36.0943 11.2935 27.8542C18.5136 19.6141 28.3028 14.9789 38.5137 14.9653H50.6244C51.337 14.9653 52.0205 15.2884 52.5244 15.8635C53.0283 16.4386 53.3114 17.2186 53.3114 18.0319C53.3114 18.8452 53.0283 19.6252 52.5244 20.2003C52.0205 20.7754 51.337 21.0985 50.6244 21.0985H38.5137C29.7275 21.1097 21.304 25.0981 15.0912 32.1885C8.87849 39.2789 5.38384 48.8923 5.374 58.9197V307.046C5.38396 317.073 8.87864 326.686 15.0914 333.777C21.3041 340.867 29.7275 344.855 38.5137 344.867H190.313C191.026 344.867 191.709 345.19 192.213 345.765C192.717 346.34 193 347.12 193 347.933C193 348.747 192.717 349.527 192.213 350.102C191.709 350.677 191.026 351 190.313 351Z" fill="#8FB5AB"/>
<path d="M45.4874 2H53V34H45.4874C44.0321 34 42.6363 33.3529 41.6072 32.201C40.5781 31.0492 40 29.4869 40 27.8579V8.1421C40 6.51311 40.5781 4.95085 41.6072 3.79898C42.6363 2.64711 44.0321 2 45.4874 2Z" fill="#8FB5AB"/>
<path d="M53.1333 36H45.4666C43.4871 35.9976 41.5892 35.1362 40.1894 33.605C38.7896 32.0737 38.0022 29.9976 38 27.832V8.16797C38.0022 6.00244 38.7896 3.9263 40.1894 2.39503C41.5892 0.863765 43.4871 0.00243212 45.4666 0L53.1333 0C53.6284 0 54.1032 0.215138 54.4533 0.598086C54.8033 0.981034 55 1.50042 55 2.04199V33.958C55 34.4996 54.8033 35.019 54.4533 35.4019C54.1032 35.7849 53.6284 36 53.1333 36ZM45.4666 4.08399C44.4992 4.08516 43.5279 4.51581 42.828 5.28145C42.1281 6.04709 41.7344 7.08519 41.7333 8.16797V27.832C41.7344 28.9148 42.1281 29.9529 42.828 30.7185C43.5279 31.4842 44.4992 31.9148 45.4666 31.916H51.2667V4.08399H45.4666Z" fill="#8FB5AB"/>
</svg>
